<svg width="68" height="165" viewBox="292 221 68 165" fill="none" xmlns="http://www.w3.org/2000/svg">
<rect x="292" y="221" width="68" height="165" rx="34" fill="#0A5B00"/>
<rect x="297.75" y="226.75" width="56.5" height="153.5" rx="28.25" stroke="#CAFF01" stroke-width="1.5"/>
<path d="M317.5 250V288M327.5 278L317.5 288L307 278" stroke="#CAFF01" stroke-width="1.5" stroke-linecap="round"/>
<path d="M334.5 288V250M344.5 260L334.5 250L324 260" stroke="#CAFF01" stroke-width="1.5" stroke-linecap="round"/>
<circle cx="326" cy="333.667" r="24" fill="#CAFF01"/>
<mask id="path-8-outside-1_18_2880" maskUnits="userSpaceOnUse" x="301" y="308.667" width="50" height="50" fill="black">
<rect fill="white" x="301" y="308.667" width="50" height="50"/>
<path d="M326.001 309.668C332.628 309.668 338.628 312.355 342.971 316.697C347.314 321.04 350 327.04 350 333.668C350 334.693 349.936 335.703 349.811 336.694C349.366 336.934 348.928 337.181 348.492 337.434C348.748 336.781 348.939 336.11 349.06 335.426C347.897 336.477 345.706 337.395 342.784 338.104C342.422 338.192 342.046 338.278 341.662 338.36C341.447 339.99 341.123 341.561 340.701 343.054C340.318 343.391 339.941 343.735 339.568 344.084C340.141 342.346 340.576 340.482 340.848 338.526C338.266 339.03 335.244 339.406 331.946 339.614C331.739 342.911 331.363 345.933 330.859 348.516C332.859 348.237 334.763 347.789 336.536 347.196C336.207 347.564 335.884 347.937 335.566 348.316C334.02 348.763 332.388 349.105 330.693 349.328C330.61 349.714 330.525 350.088 330.436 350.451C329.727 353.373 328.81 355.563 327.759 356.727C328.638 356.572 329.494 356.3 330.321 355.924C330.047 356.415 329.779 356.908 329.522 357.409C328.372 357.579 327.196 357.667 325.999 357.667C319.372 357.667 313.372 354.98 309.029 350.638C304.686 346.294 302 340.294 302 333.667C302 327.04 304.687 321.039 309.029 316.696C313.372 312.353 319.372 309.667 325.999 309.667L326.001 309.668ZM302.94 331.909C304.104 330.858 306.294 329.941 309.216 329.231C309.578 329.143 309.954 329.057 310.339 328.975C310.695 326.271 311.353 323.73 312.257 321.436C311.285 321.905 310.37 322.422 309.522 322.982C305.955 325.336 303.554 328.448 302.941 331.91L302.94 331.909ZM311.152 328.809C313.734 328.305 316.756 327.929 320.054 327.722C320.261 324.425 320.637 321.402 321.141 318.82C318.299 319.217 315.649 319.954 313.295 320.964C312.285 323.318 311.548 325.968 311.151 328.81L311.152 328.809ZM320.842 327.676C322.504 327.587 324.23 327.539 326.001 327.539C327.772 327.539 329.498 327.587 331.16 327.676C330.946 324.339 330.56 321.294 330.043 318.716C328.73 318.565 327.38 318.485 326.001 318.485C324.622 318.485 323.271 318.565 321.959 318.716C321.441 321.294 321.054 324.339 320.842 327.676ZM331.948 327.722C335.245 327.929 338.267 328.305 340.85 328.809C340.453 325.967 339.716 323.317 338.705 320.964C336.352 319.953 333.702 319.216 330.86 318.819C331.364 321.402 331.74 324.424 331.947 327.721L331.948 327.722ZM341.663 328.976C342.049 329.058 342.423 329.144 342.786 329.232C345.707 329.942 347.898 330.859 349.061 331.91C348.448 328.448 346.047 325.336 342.48 322.982C341.631 322.422 340.717 321.905 339.745 321.436C340.65 323.73 341.308 326.271 341.664 328.975L341.663 328.976ZM331.16 339.662C329.498 339.752 327.772 339.799 326.001 339.799C324.23 339.799 322.504 339.752 320.842 339.662C321.055 343 321.441 346.044 321.959 348.623C323.271 348.774 324.622 348.853 326.001 348.853C327.38 348.853 328.73 348.774 330.043 348.623C330.561 346.045 330.947 343 331.16 339.662ZM320.054 339.616C316.756 339.409 313.734 339.033 311.152 338.529C311.549 341.371 312.286 344.021 313.296 346.375C315.65 347.385 318.3 348.123 321.142 348.519C320.638 345.937 320.262 342.915 320.054 339.617L320.054 339.616ZM310.339 338.363C309.953 338.28 309.578 338.195 309.216 338.107C306.294 337.397 304.104 336.48 302.94 335.429C303.554 338.89 305.955 342.003 309.521 344.357C310.37 344.916 311.284 345.433 312.256 345.902C311.352 343.608 310.694 341.067 310.338 338.363L310.339 338.363ZM309.399 329.991C305.313 330.985 302.785 332.289 302.785 333.669C302.785 335.049 305.312 336.354 309.399 337.347C309.673 337.414 309.954 337.479 310.24 337.542C310.104 336.281 310.034 334.987 310.034 333.669C310.034 332.351 310.105 331.058 310.24 329.797C309.953 329.86 309.672 329.925 309.399 329.991ZM311.048 337.711C313.626 338.229 316.671 338.616 320.007 338.828C319.918 337.167 319.87 335.44 319.87 333.669C319.87 331.898 319.918 330.172 320.007 328.51C316.67 328.723 313.626 329.11 311.048 329.627C310.897 330.94 310.817 332.29 310.817 333.669C310.817 335.048 310.897 336.399 311.048 337.711ZM320.795 338.875C322.468 338.967 324.21 339.015 326 339.015C327.79 339.015 329.532 338.967 331.205 338.875C331.297 337.201 331.346 335.458 331.346 333.669C331.346 331.88 331.297 330.137 331.205 328.464C329.532 328.372 327.79 328.323 326 328.323C324.21 328.323 322.468 328.372 320.795 328.464C320.703 330.137 320.654 331.88 320.654 333.669C320.654 335.459 320.703 337.201 320.795 338.875ZM331.993 338.828C335.33 338.615 338.375 338.229 340.952 337.711C341.103 336.399 341.183 335.048 341.183 333.669C341.183 332.29 341.103 330.94 340.952 329.627C338.375 329.109 335.33 328.723 331.993 328.51C332.083 330.172 332.13 331.898 332.13 333.669C332.13 335.44 332.083 337.167 331.993 338.828ZM341.76 337.541C342.047 337.478 342.328 337.413 342.601 337.346C346.687 336.353 349.215 335.049 349.215 333.669C349.215 332.289 346.688 330.984 342.601 329.991C342.327 329.924 342.046 329.859 341.76 329.796C341.896 331.056 341.966 332.35 341.966 333.669C341.966 334.987 341.895 336.28 341.76 337.541ZM327.759 310.608C328.81 311.771 329.727 313.962 330.437 316.884C330.525 317.246 330.61 317.622 330.693 318.007C333.397 318.363 335.938 319.021 338.232 319.925C337.763 318.953 337.247 318.038 336.686 317.19C334.333 313.623 331.22 311.222 327.759 310.609L327.759 310.608ZM324.241 356.73C323.19 355.566 322.273 353.375 321.563 350.454C321.475 350.091 321.39 349.716 321.307 349.331C318.603 348.975 316.062 348.317 313.768 347.413C314.237 348.385 314.754 349.299 315.314 350.148C317.667 353.715 320.78 356.116 324.241 356.729L324.241 356.73ZM321.307 318.007C321.389 317.621 321.474 317.246 321.563 316.884C322.273 313.962 323.19 311.771 324.241 310.608C320.779 311.221 317.667 313.623 315.313 317.189C314.754 318.038 314.236 318.952 313.768 319.924C316.061 319.02 318.602 318.362 321.306 318.006L321.307 318.007ZM329.678 317.067C328.685 312.981 327.38 310.452 326 310.452C324.62 310.452 323.316 312.98 322.322 317.067C322.256 317.341 322.191 317.622 322.128 317.908C323.388 317.772 324.682 317.702 326 317.702C327.318 317.702 328.611 317.773 329.872 317.908C329.81 317.621 329.744 317.34 329.678 317.067ZM322.128 349.43C322.191 349.717 322.256 349.997 322.323 350.27C323.316 354.357 324.62 356.885 326.001 356.885C327.38 356.885 328.685 354.358 329.679 350.27C329.745 349.997 329.81 349.716 329.873 349.43C328.613 349.566 327.319 349.636 326.001 349.636C324.683 349.636 323.39 349.565 322.128 349.43ZM303.426 328.227C304.646 325.983 306.598 323.975 309.093 322.33C310.195 321.602 311.404 320.946 312.703 320.371C313.278 319.073 313.934 317.864 314.661 316.762C316.306 314.267 318.314 312.315 320.558 311.095C316.332 312.11 312.557 314.28 309.584 317.253C306.61 320.226 304.44 324.002 303.426 328.228L303.426 328.227ZM339.298 320.371C340.596 320.946 341.806 321.602 342.908 322.329C345.402 323.975 347.355 325.983 348.574 328.226C347.56 324 345.39 320.225 342.416 317.252C339.443 314.278 335.668 312.108 331.442 311.093C333.686 312.313 335.694 314.265 337.339 316.76C338.067 317.862 338.723 319.072 339.297 320.37L339.298 320.371ZM312.703 346.967C311.404 346.392 310.195 345.735 309.093 345.009C306.599 343.363 304.646 341.355 303.426 339.112C304.441 343.337 306.611 347.113 309.584 350.086C312.558 353.059 316.333 355.23 320.558 356.244C318.315 355.025 316.307 353.073 314.662 350.578C313.934 349.476 313.278 348.266 312.703 346.968L312.703 346.967Z"/>
<path d="M325.999 357.666C319.372 357.666 313.372 354.979 309.029 350.637C304.686 346.294 302 340.294 302 333.666C302 332.641 302.064 331.631 302.189 330.64C302.634 330.4 303.072 330.153 303.508 329.9C303.252 330.553 303.061 331.224 302.94 331.908C304.103 330.857 306.294 329.939 309.216 329.23C309.578 329.142 309.954 329.056 310.338 328.974C310.553 327.344 310.877 325.773 311.299 324.28C311.682 323.943 312.059 323.599 312.432 323.25C311.859 324.988 311.424 326.852 311.152 328.808C313.734 328.304 316.756 327.928 320.054 327.72C320.261 324.423 320.637 321.401 321.141 318.818C319.141 319.097 317.237 319.545 315.464 320.138C315.793 319.77 316.116 319.397 316.434 319.018C317.98 318.571 319.612 318.229 321.307 318.006C321.39 317.62 321.475 317.246 321.564 316.883C322.273 313.961 323.19 311.771 324.241 310.607C323.362 310.762 322.506 311.034 321.679 311.41C321.953 310.919 322.221 310.426 322.478 309.925C323.628 309.755 324.804 309.667 326.001 309.667C332.628 309.667 338.628 312.354 342.971 316.696C347.314 321.04 350 327.039 350 333.667C350 340.294 347.313 346.295 342.971 350.638C338.628 354.981 332.628 357.667 326.001 357.667L325.999 357.666ZM349.06 335.425C347.896 336.476 345.706 337.393 342.784 338.103C342.422 338.191 342.046 338.277 341.661 338.359C341.305 341.063 340.647 343.604 339.743 345.898C340.715 345.429 341.63 344.912 342.478 344.352C346.045 341.998 348.446 338.886 349.059 335.424L349.06 335.425ZM340.848 338.525C338.266 339.029 335.244 339.405 331.946 339.612C331.739 342.909 331.363 345.932 330.859 348.514C333.701 348.117 336.351 347.38 338.705 346.37C339.715 344.016 340.452 341.366 340.849 338.524L340.848 338.525ZM331.158 339.658C329.496 339.747 327.77 339.795 325.999 339.795C324.228 339.795 322.502 339.747 320.84 339.658C321.054 342.995 321.44 346.04 321.957 348.618C323.27 348.769 324.62 348.849 325.999 348.849C327.378 348.849 328.729 348.769 330.041 348.618C330.559 346.04 330.946 342.995 331.158 339.658ZM320.052 339.612C316.755 339.405 313.733 339.029 311.15 338.525C311.547 341.367 312.284 344.017 313.295 346.37C315.648 347.381 318.298 348.118 321.14 348.515C320.636 345.932 320.26 342.91 320.053 339.613L320.052 339.612ZM310.337 338.358C309.951 338.276 309.577 338.19 309.214 338.102C306.293 337.392 304.102 336.475 302.939 335.424C303.552 338.886 305.953 341.998 309.52 344.352C310.369 344.912 311.283 345.429 312.255 345.898C311.35 343.604 310.692 341.063 310.336 338.359L310.337 338.358ZM320.84 327.672C322.502 327.582 324.228 327.535 325.999 327.535C327.77 327.535 329.496 327.582 331.158 327.672C330.945 324.334 330.559 321.29 330.041 318.711C328.729 318.56 327.378 318.481 325.999 318.481C324.62 318.481 323.27 318.56 321.957 318.711C321.439 321.289 321.053 324.334 320.84 327.672ZM331.946 327.717C335.244 327.925 338.266 328.301 340.848 328.805C340.451 325.963 339.714 323.313 338.704 320.959C336.35 319.949 333.7 319.211 330.858 318.815C331.362 321.397 331.738 324.419 331.946 327.717L331.946 327.717ZM341.661 328.971C342.047 329.053 342.422 329.139 342.784 329.227C345.706 329.937 347.896 330.854 349.06 331.905C348.446 328.444 346.045 325.331 342.479 322.977C341.63 322.418 340.716 321.9 339.744 321.432C340.648 323.726 341.306 326.267 341.662 328.971L341.661 328.971ZM342.601 337.343C346.687 336.349 349.215 335.045 349.215 333.665C349.215 332.285 346.688 330.98 342.601 329.987C342.327 329.92 342.046 329.855 341.76 329.792C341.896 331.053 341.966 332.347 341.966 333.665C341.966 334.983 341.895 336.276 341.76 337.537C342.047 337.474 342.328 337.409 342.601 337.343ZM340.952 329.623C338.374 329.105 335.329 328.718 331.993 328.506C332.082 330.167 332.13 331.894 332.13 333.665C332.13 335.436 332.082 337.162 331.993 338.824C335.33 338.611 338.374 338.224 340.952 337.707C341.103 336.394 341.183 335.044 341.183 333.665C341.183 332.286 341.103 330.935 340.952 329.623ZM331.205 328.459C329.532 328.367 327.79 328.319 326 328.319C324.21 328.319 322.468 328.367 320.795 328.459C320.703 330.133 320.654 331.876 320.654 333.665C320.654 335.454 320.703 337.197 320.795 338.87C322.468 338.962 324.21 339.011 326 339.011C327.79 339.011 329.532 338.962 331.205 338.87C331.297 337.197 331.346 335.454 331.346 333.665C331.346 331.875 331.297 330.133 331.205 328.459ZM320.007 328.506C316.67 328.719 313.625 329.105 311.048 329.623C310.897 330.935 310.817 332.286 310.817 333.665C310.817 335.044 310.897 336.394 311.048 337.707C313.625 338.225 316.67 338.611 320.007 338.824C319.917 337.162 319.87 335.436 319.87 333.665C319.87 331.894 319.917 330.167 320.007 328.506ZM310.24 329.793C309.953 329.856 309.672 329.921 309.399 329.988C305.313 330.981 302.785 332.285 302.785 333.665C302.785 335.045 305.312 336.35 309.399 337.343C309.673 337.41 309.954 337.475 310.24 337.538C310.104 336.278 310.034 334.984 310.034 333.665C310.034 332.347 310.105 331.054 310.24 329.793ZM324.241 356.726C323.19 355.563 322.273 353.372 321.563 350.45C321.475 350.088 321.39 349.712 321.307 349.327C318.603 348.971 316.062 348.313 313.768 347.409C314.237 348.381 314.753 349.296 315.314 350.144C317.667 353.711 320.78 356.112 324.241 356.725L324.241 356.726ZM327.759 310.604C328.81 311.768 329.727 313.958 330.437 316.88C330.525 317.243 330.61 317.618 330.693 318.003C333.397 318.359 335.938 319.017 338.232 319.921C337.763 318.949 337.246 318.035 336.686 317.186C334.333 313.619 331.22 311.218 327.759 310.605L327.759 310.604ZM330.693 349.327C330.611 349.713 330.526 350.088 330.437 350.45C329.727 353.372 328.81 355.563 327.759 356.726C331.221 356.113 334.333 353.711 336.687 350.145C337.246 349.296 337.764 348.382 338.232 347.41C335.939 348.314 333.398 348.972 330.694 349.328L330.693 349.327ZM322.322 350.267C323.315 354.353 324.62 356.882 326 356.882C327.38 356.882 328.684 354.354 329.678 350.267C329.744 349.993 329.809 349.712 329.872 349.426C328.612 349.562 327.318 349.632 326 349.632C324.682 349.632 323.389 349.561 322.128 349.426C322.19 349.713 322.256 349.994 322.322 350.267ZM329.872 317.904C329.809 317.617 329.744 317.337 329.677 317.064C328.684 312.977 327.38 310.449 325.999 310.449C324.62 310.449 323.315 312.976 322.321 317.064C322.255 317.337 322.19 317.618 322.127 317.904C323.387 317.768 324.681 317.698 325.999 317.698C327.317 317.698 328.61 317.769 329.872 317.904ZM348.574 339.107C347.354 341.351 345.402 343.359 342.907 345.004C341.805 345.732 340.596 346.388 339.297 346.963C338.722 348.261 338.066 349.47 337.339 350.572C335.694 353.067 333.686 355.019 331.442 356.239C335.668 355.224 339.443 353.054 342.416 350.081C345.39 347.108 347.56 343.332 348.574 339.106L348.574 339.107ZM312.702 346.963C311.404 346.388 310.194 345.732 309.092 345.005C306.598 343.359 304.645 341.351 303.426 339.108C304.44 343.334 306.61 347.109 309.584 350.082C312.557 353.056 316.332 355.226 320.558 356.241C318.314 355.021 316.306 353.069 314.661 350.574C313.933 349.472 313.277 348.262 312.703 346.964L312.702 346.963ZM339.297 320.367C340.596 320.942 341.805 321.599 342.907 322.325C345.401 323.971 347.354 325.979 348.574 328.222C347.559 323.997 345.389 320.221 342.416 317.248C339.442 314.275 335.667 312.104 331.441 311.09C333.685 312.309 335.693 314.261 337.338 316.756C338.066 317.858 338.722 319.068 339.297 320.366L339.297 320.367Z"/>
</mask>
<path d="M326.001 309.668C332.628 309.668 338.628 312.355 342.971 316.697C347.314 321.04 350 327.04 350 333.668C350 334.693 349.936 335.703 349.811 336.694C349.366 336.934 348.928 337.181 348.492 337.434C348.748 336.781 348.939 336.11 349.06 335.426C347.897 336.477 345.706 337.395 342.784 338.104C342.422 338.192 342.046 338.278 341.662 338.36C341.447 339.99 341.123 341.561 340.701 343.054C340.318 343.391 339.941 343.735 339.568 344.084C340.141 342.346 340.576 340.482 340.848 338.526C338.266 339.03 335.244 339.406 331.946 339.614C331.739 342.911 331.363 345.933 330.859 348.516C332.859 348.237 334.763 347.789 336.536 347.196C336.207 347.564 335.884 347.937 335.566 348.316C334.02 348.763 332.388 349.105 330.693 349.328C330.61 349.714 330.525 350.088 330.436 350.451C329.727 353.373 328.81 355.563 327.759 356.727C328.638 356.572 329.494 356.3 330.321 355.924C330.047 356.415 329.779 356.908 329.522 357.409C328.372 357.579 327.196 357.667 325.999 357.667C319.372 357.667 313.372 354.98 309.029 350.638C304.686 346.294 302 340.294 302 333.667C302 327.04 304.687 321.039 309.029 316.696C313.372 312.353 319.372 309.667 325.999 309.667L326.001 309.668ZM302.94 331.909C304.104 330.858 306.294 329.941 309.216 329.231C309.578 329.143 309.954 329.057 310.339 328.975C310.695 326.271 311.353 323.73 312.257 321.436C311.285 321.905 310.37 322.422 309.522 322.982C305.955 325.336 303.554 328.448 302.941 331.91L302.94 331.909ZM311.152 328.809C313.734 328.305 316.756 327.929 320.054 327.722C320.261 324.425 320.637 321.402 321.141 318.82C318.299 319.217 315.649 319.954 313.295 320.964C312.285 323.318 311.548 325.968 311.151 328.81L311.152 328.809ZM320.842 327.676C322.504 327.587 324.23 327.539 326.001 327.539C327.772 327.539 329.498 327.587 331.16 327.676C330.946 324.339 330.56 321.294 330.043 318.716C328.73 318.565 327.38 318.485 326.001 318.485C324.622 318.485 323.271 318.565 321.959 318.716C321.441 321.294 321.054 324.339 320.842 327.676ZM331.948 327.722C335.245 327.929 338.267 328.305 340.85 328.809C340.453 325.967 339.716 323.317 338.705 320.964C336.352 319.953 333.702 319.216 330.86 318.819C331.364 321.402 331.74 324.424 331.947 327.721L331.948 327.722ZM341.663 328.976C342.049 329.058 342.423 329.144 342.786 329.232C345.707 329.942 347.898 330.859 349.061 331.91C348.448 328.448 346.047 325.336 342.48 322.982C341.631 322.422 340.717 321.905 339.745 321.436C340.65 323.73 341.308 326.271 341.664 328.975L341.663 328.976ZM331.16 339.662C329.498 339.752 327.772 339.799 326.001 339.799C324.23 339.799 322.504 339.752 320.842 339.662C321.055 343 321.441 346.044 321.959 348.623C323.271 348.774 324.622 348.853 326.001 348.853C327.38 348.853 328.73 348.774 330.043 348.623C330.561 346.045 330.947 343 331.16 339.662ZM320.054 339.616C316.756 339.409 313.734 339.033 311.152 338.529C311.549 341.371 312.286 344.021 313.296 346.375C315.65 347.385 318.3 348.123 321.142 348.519C320.638 345.937 320.262 342.915 320.054 339.617L320.054 339.616ZM310.339 338.363C309.953 338.28 309.578 338.195 309.216 338.107C306.294 337.397 304.104 336.48 302.94 335.429C303.554 338.89 305.955 342.003 309.521 344.357C310.37 344.916 311.284 345.433 312.256 345.902C311.352 343.608 310.694 341.067 310.338 338.363L310.339 338.363ZM309.399 329.991C305.313 330.985 302.785 332.289 302.785 333.669C302.785 335.049 305.312 336.354 309.399 337.347C309.673 337.414 309.954 337.479 310.24 337.542C310.104 336.281 310.034 334.987 310.034 333.669C310.034 332.351 310.105 331.058 310.24 329.797C309.953 329.86 309.672 329.925 309.399 329.991ZM311.048 337.711C313.626 338.229 316.671 338.616 320.007 338.828C319.918 337.167 319.87 335.44 319.87 333.669C319.87 331.898 319.918 330.172 320.007 328.51C316.67 328.723 313.626 329.11 311.048 329.627C310.897 330.94 310.817 332.29 310.817 333.669C310.817 335.048 310.897 336.399 311.048 337.711ZM320.795 338.875C322.468 338.967 324.21 339.015 326 339.015C327.79 339.015 329.532 338.967 331.205 338.875C331.297 337.201 331.346 335.458 331.346 333.669C331.346 331.88 331.297 330.137 331.205 328.464C329.532 328.372 327.79 328.323 326 328.323C324.21 328.323 322.468 328.372 320.795 328.464C320.703 330.137 320.654 331.88 320.654 333.669C320.654 335.459 320.703 337.201 320.795 338.875ZM331.993 338.828C335.33 338.615 338.375 338.229 340.952 337.711C341.103 336.399 341.183 335.048 341.183 333.669C341.183 332.29 341.103 330.94 340.952 329.627C338.375 329.109 335.33 328.723 331.993 328.51C332.083 330.172 332.13 331.898 332.13 333.669C332.13 335.44 332.083 337.167 331.993 338.828ZM341.76 337.541C342.047 337.478 342.328 337.413 342.601 337.346C346.687 336.353 349.215 335.049 349.215 333.669C349.215 332.289 346.688 330.984 342.601 329.991C342.327 329.924 342.046 329.859 341.76 329.796C341.896 331.056 341.966 332.35 341.966 333.669C341.966 334.987 341.895 336.28 341.76 337.541ZM327.759 310.608C328.81 311.771 329.727 313.962 330.437 316.884C330.525 317.246 330.61 317.622 330.693 318.007C333.397 318.363 335.938 319.021 338.232 319.925C337.763 318.953 337.247 318.038 336.686 317.19C334.333 313.623 331.22 311.222 327.759 310.609L327.759 310.608ZM324.241 356.73C323.19 355.566 322.273 353.375 321.563 350.454C321.475 350.091 321.39 349.716 321.307 349.331C318.603 348.975 316.062 348.317 313.768 347.413C314.237 348.385 314.754 349.299 315.314 350.148C317.667 353.715 320.78 356.116 324.241 356.729L324.241 356.73ZM321.307 318.007C321.389 317.621 321.474 317.246 321.563 316.884C322.273 313.962 323.19 311.771 324.241 310.608C320.779 311.221 317.667 313.623 315.313 317.189C314.754 318.038 314.236 318.952 313.768 319.924C316.061 319.02 318.602 318.362 321.306 318.006L321.307 318.007ZM329.678 317.067C328.685 312.981 327.38 310.452 326 310.452C324.62 310.452 323.316 312.98 322.322 317.067C322.256 317.341 322.191 317.622 322.128 317.908C323.388 317.772 324.682 317.702 326 317.702C327.318 317.702 328.611 317.773 329.872 317.908C329.81 317.621 329.744 317.34 329.678 317.067ZM322.128 349.43C322.191 349.717 322.256 349.997 322.323 350.27C323.316 354.357 324.62 356.885 326.001 356.885C327.38 356.885 328.685 354.358 329.679 350.27C329.745 349.997 329.81 349.716 329.873 349.43C328.613 349.566 327.319 349.636 326.001 349.636C324.683 349.636 323.39 349.565 322.128 349.43ZM303.426 328.227C304.646 325.983 306.598 323.975 309.093 322.33C310.195 321.602 311.404 320.946 312.703 320.371C313.278 319.073 313.934 317.864 314.661 316.762C316.306 314.267 318.314 312.315 320.558 311.095C316.332 312.11 312.557 314.28 309.584 317.253C306.61 320.226 304.44 324.002 303.426 328.228L303.426 328.227ZM339.298 320.371C340.596 320.946 341.806 321.602 342.908 322.329C345.402 323.975 347.355 325.983 348.574 328.226C347.56 324 345.39 320.225 342.416 317.252C339.443 314.278 335.668 312.108 331.442 311.093C333.686 312.313 335.694 314.265 337.339 316.76C338.067 317.862 338.723 319.072 339.297 320.37L339.298 320.371ZM312.703 346.967C311.404 346.392 310.195 345.735 309.093 345.009C306.599 343.363 304.646 341.355 303.426 339.112C304.441 343.337 306.611 347.113 309.584 350.086C312.558 353.059 316.333 355.23 320.558 356.244C318.315 355.025 316.307 353.073 314.662 350.578C313.934 349.476 313.278 348.266 312.703 346.968L312.703 346.967Z" fill="#0A5B00"/>
<path d="M325.999 357.666C319.372 357.666 313.372 354.979 309.029 350.637C304.686 346.294 302 340.294 302 333.666C302 332.641 302.064 331.631 302.189 330.64C302.634 330.4 303.072 330.153 303.508 329.9C303.252 330.553 303.061 331.224 302.94 331.908C304.103 330.857 306.294 329.939 309.216 329.23C309.578 329.142 309.954 329.056 310.338 328.974C310.553 327.344 310.877 325.773 311.299 324.28C311.682 323.943 312.059 323.599 312.432 323.25C311.859 324.988 311.424 326.852 311.152 328.808C313.734 328.304 316.756 327.928 320.054 327.72C320.261 324.423 320.637 321.401 321.141 318.818C319.141 319.097 317.237 319.545 315.464 320.138C315.793 319.77 316.116 319.397 316.434 319.018C317.98 318.571 319.612 318.229 321.307 318.006C321.39 317.62 321.475 317.246 321.564 316.883C322.273 313.961 323.19 311.771 324.241 310.607C323.362 310.762 322.506 311.034 321.679 311.41C321.953 310.919 322.221 310.426 322.478 309.925C323.628 309.755 324.804 309.667 326.001 309.667C332.628 309.667 338.628 312.354 342.971 316.696C347.314 321.04 350 327.039 350 333.667C350 340.294 347.313 346.295 342.971 350.638C338.628 354.981 332.628 357.667 326.001 357.667L325.999 357.666ZM349.06 335.425C347.896 336.476 345.706 337.393 342.784 338.103C342.422 338.191 342.046 338.277 341.661 338.359C341.305 341.063 340.647 343.604 339.743 345.898C340.715 345.429 341.63 344.912 342.478 344.352C346.045 341.998 348.446 338.886 349.059 335.424L349.06 335.425ZM340.848 338.525C338.266 339.029 335.244 339.405 331.946 339.612C331.739 342.909 331.363 345.932 330.859 348.514C333.701 348.117 336.351 347.38 338.705 346.37C339.715 344.016 340.452 341.366 340.849 338.524L340.848 338.525ZM331.158 339.658C329.496 339.747 327.77 339.795 325.999 339.795C324.228 339.795 322.502 339.747 320.84 339.658C321.054 342.995 321.44 346.04 321.957 348.618C323.27 348.769 324.62 348.849 325.999 348.849C327.378 348.849 328.729 348.769 330.041 348.618C330.559 346.04 330.946 342.995 331.158 339.658ZM320.052 339.612C316.755 339.405 313.733 339.029 311.15 338.525C311.547 341.367 312.284 344.017 313.295 346.37C315.648 347.381 318.298 348.118 321.14 348.515C320.636 345.932 320.26 342.91 320.053 339.613L320.052 339.612ZM310.337 338.358C309.951 338.276 309.577 338.19 309.214 338.102C306.293 337.392 304.102 336.475 302.939 335.424C303.552 338.886 305.953 341.998 309.52 344.352C310.369 344.912 311.283 345.429 312.255 345.898C311.35 343.604 310.692 341.063 310.336 338.359L310.337 338.358ZM320.84 327.672C322.502 327.582 324.228 327.535 325.999 327.535C327.77 327.535 329.496 327.582 331.158 327.672C330.945 324.334 330.559 321.29 330.041 318.711C328.729 318.56 327.378 318.481 325.999 318.481C324.62 318.481 323.27 318.56 321.957 318.711C321.439 321.289 321.053 324.334 320.84 327.672ZM331.946 327.717C335.244 327.925 338.266 328.301 340.848 328.805C340.451 325.963 339.714 323.313 338.704 320.959C336.35 319.949 333.7 319.211 330.858 318.815C331.362 321.397 331.738 324.419 331.946 327.717L331.946 327.717ZM341.661 328.971C342.047 329.053 342.422 329.139 342.784 329.227C345.706 329.937 347.896 330.854 349.06 331.905C348.446 328.444 346.045 325.331 342.479 322.977C341.63 322.418 340.716 321.9 339.744 321.432C340.648 323.726 341.306 326.267 341.662 328.971L341.661 328.971ZM342.601 337.343C346.687 336.349 349.215 335.045 349.215 333.665C349.215 332.285 346.688 330.98 342.601 329.987C342.327 329.92 342.046 329.855 341.76 329.792C341.896 331.053 341.966 332.347 341.966 333.665C341.966 334.983 341.895 336.276 341.76 337.537C342.047 337.474 342.328 337.409 342.601 337.343ZM340.952 329.623C338.374 329.105 335.329 328.718 331.993 328.506C332.082 330.167 332.13 331.894 332.13 333.665C332.13 335.436 332.082 337.162 331.993 338.824C335.33 338.611 338.374 338.224 340.952 337.707C341.103 336.394 341.183 335.044 341.183 333.665C341.183 332.286 341.103 330.935 340.952 329.623ZM331.205 328.459C329.532 328.367 327.79 328.319 326 328.319C324.21 328.319 322.468 328.367 320.795 328.459C320.703 330.133 320.654 331.876 320.654 333.665C320.654 335.454 320.703 337.197 320.795 338.87C322.468 338.962 324.21 339.011 326 339.011C327.79 339.011 329.532 338.962 331.205 338.87C331.297 337.197 331.346 335.454 331.346 333.665C331.346 331.875 331.297 330.133 331.205 328.459ZM320.007 328.506C316.67 328.719 313.625 329.105 311.048 329.623C310.897 330.935 310.817 332.286 310.817 333.665C310.817 335.044 310.897 336.394 311.048 337.707C313.625 338.225 316.67 338.611 320.007 338.824C319.917 337.162 319.87 335.436 319.87 333.665C319.87 331.894 319.917 330.167 320.007 328.506ZM310.24 329.793C309.953 329.856 309.672 329.921 309.399 329.988C305.313 330.981 302.785 332.285 302.785 333.665C302.785 335.045 305.312 336.35 309.399 337.343C309.673 337.41 309.954 337.475 310.24 337.538C310.104 336.278 310.034 334.984 310.034 333.665C310.034 332.347 310.105 331.054 310.24 329.793ZM324.241 356.726C323.19 355.563 322.273 353.372 321.563 350.45C321.475 350.088 321.39 349.712 321.307 349.327C318.603 348.971 316.062 348.313 313.768 347.409C314.237 348.381 314.753 349.296 315.314 350.144C317.667 353.711 320.78 356.112 324.241 356.725L324.241 356.726ZM327.759 310.604C328.81 311.768 329.727 313.958 330.437 316.88C330.525 317.243 330.61 317.618 330.693 318.003C333.397 318.359 335.938 319.017 338.232 319.921C337.763 318.949 337.246 318.035 336.686 317.186C334.333 313.619 331.22 311.218 327.759 310.605L327.759 310.604ZM330.693 349.327C330.611 349.713 330.526 350.088 330.437 350.45C329.727 353.372 328.81 355.563 327.759 356.726C331.221 356.113 334.333 353.711 336.687 350.145C337.246 349.296 337.764 348.382 338.232 347.41C335.939 348.314 333.398 348.972 330.694 349.328L330.693 349.327ZM322.322 350.267C323.315 354.353 324.62 356.882 326 356.882C327.38 356.882 328.684 354.354 329.678 350.267C329.744 349.993 329.809 349.712 329.872 349.426C328.612 349.562 327.318 349.632 326 349.632C324.682 349.632 323.389 349.561 322.128 349.426C322.19 349.713 322.256 349.994 322.322 350.267ZM329.872 317.904C329.809 317.617 329.744 317.337 329.677 317.064C328.684 312.977 327.38 310.449 325.999 310.449C324.62 310.449 323.315 312.976 322.321 317.064C322.255 317.337 322.19 317.618 322.127 317.904C323.387 317.768 324.681 317.698 325.999 317.698C327.317 317.698 328.61 317.769 329.872 317.904ZM348.574 339.107C347.354 341.351 345.402 343.359 342.907 345.004C341.805 345.732 340.596 346.388 339.297 346.963C338.722 348.261 338.066 349.47 337.339 350.572C335.694 353.067 333.686 355.019 331.442 356.239C335.668 355.224 339.443 353.054 342.416 350.081C345.39 347.108 347.56 343.332 348.574 339.106L348.574 339.107ZM312.702 346.963C311.404 346.388 310.194 345.732 309.092 345.005C306.598 343.359 304.645 341.351 303.426 339.108C304.44 343.334 306.61 347.109 309.584 350.082C312.557 353.056 316.332 355.226 320.558 356.241C318.314 355.021 316.306 353.069 314.661 350.574C313.933 349.472 313.277 348.262 312.703 346.964L312.702 346.963ZM339.297 320.367C340.596 320.942 341.805 321.599 342.907 322.325C345.401 323.971 347.354 325.979 348.574 328.222C347.559 323.997 345.389 320.221 342.416 317.248C339.442 314.275 335.667 312.104 331.441 311.09C333.685 312.309 335.693 314.261 337.338 316.756C338.066 317.858 338.722 319.068 339.297 320.366L339.297 320.367Z" fill="#0A5B00"/>
<path d="M326.001 309.668C332.628 309.668 338.628 312.355 342.971 316.697C347.314 321.04 350 327.04 350 333.668C350 334.693 349.936 335.703 349.811 336.694C349.366 336.934 348.928 337.181 348.492 337.434C348.748 336.781 348.939 336.11 349.06 335.426C347.897 336.477 345.706 337.395 342.784 338.104C342.422 338.192 342.046 338.278 341.662 338.36C341.447 339.99 341.123 341.561 340.701 343.054C340.318 343.391 339.941 343.735 339.568 344.084C340.141 342.346 340.576 340.482 340.848 338.526C338.266 339.03 335.244 339.406 331.946 339.614C331.739 342.911 331.363 345.933 330.859 348.516C332.859 348.237 334.763 347.789 336.536 347.196C336.207 347.564 335.884 347.937 335.566 348.316C334.02 348.763 332.388 349.105 330.693 349.328C330.61 349.714 330.525 350.088 330.436 350.451C329.727 353.373 328.81 355.563 327.759 356.727C328.638 356.572 329.494 356.3 330.321 355.924C330.047 356.415 329.779 356.908 329.522 357.409C328.372 357.579 327.196 357.667 325.999 357.667C319.372 357.667 313.372 354.98 309.029 350.638C304.686 346.294 302 340.294 302 333.667C302 327.04 304.687 321.039 309.029 316.696C313.372 312.353 319.372 309.667 325.999 309.667L326.001 309.668ZM302.94 331.909C304.104 330.858 306.294 329.941 309.216 329.231C309.578 329.143 309.954 329.057 310.339 328.975C310.695 326.271 311.353 323.73 312.257 321.436C311.285 321.905 310.37 322.422 309.522 322.982C305.955 325.336 303.554 328.448 302.941 331.91L302.94 331.909ZM311.152 328.809C313.734 328.305 316.756 327.929 320.054 327.722C320.261 324.425 320.637 321.402 321.141 318.82C318.299 319.217 315.649 319.954 313.295 320.964C312.285 323.318 311.548 325.968 311.151 328.81L311.152 328.809ZM320.842 327.676C322.504 327.587 324.23 327.539 326.001 327.539C327.772 327.539 329.498 327.587 331.16 327.676C330.946 324.339 330.56 321.294 330.043 318.716C328.73 318.565 327.38 318.485 326.001 318.485C324.622 318.485 323.271 318.565 321.959 318.716C321.441 321.294 321.054 324.339 320.842 327.676ZM331.948 327.722C335.245 327.929 338.267 328.305 340.85 328.809C340.453 325.967 339.716 323.317 338.705 320.964C336.352 319.953 333.702 319.216 330.86 318.819C331.364 321.402 331.74 324.424 331.947 327.721L331.948 327.722ZM341.663 328.976C342.049 329.058 342.423 329.144 342.786 329.232C345.707 329.942 347.898 330.859 349.061 331.91C348.448 328.448 346.047 325.336 342.48 322.982C341.631 322.422 340.717 321.905 339.745 321.436C340.65 323.73 341.308 326.271 341.664 328.975L341.663 328.976ZM331.16 339.662C329.498 339.752 327.772 339.799 326.001 339.799C324.23 339.799 322.504 339.752 320.842 339.662C321.055 343 321.441 346.044 321.959 348.623C323.271 348.774 324.622 348.853 326.001 348.853C327.38 348.853 328.73 348.774 330.043 348.623C330.561 346.045 330.947 343 331.16 339.662ZM320.054 339.616C316.756 339.409 313.734 339.033 311.152 338.529C311.549 341.371 312.286 344.021 313.296 346.375C315.65 347.385 318.3 348.123 321.142 348.519C320.638 345.937 320.262 342.915 320.054 339.617L320.054 339.616ZM310.339 338.363C309.953 338.28 309.578 338.195 309.216 338.107C306.294 337.397 304.104 336.48 302.94 335.429C303.554 338.89 305.955 342.003 309.521 344.357C310.37 344.916 311.284 345.433 312.256 345.902C311.352 343.608 310.694 341.067 310.338 338.363L310.339 338.363ZM309.399 329.991C305.313 330.985 302.785 332.289 302.785 333.669C302.785 335.049 305.312 336.354 309.399 337.347C309.673 337.414 309.954 337.479 310.24 337.542C310.104 336.281 310.034 334.987 310.034 333.669C310.034 332.351 310.105 331.058 310.24 329.797C309.953 329.86 309.672 329.925 309.399 329.991ZM311.048 337.711C313.626 338.229 316.671 338.616 320.007 338.828C319.918 337.167 319.87 335.44 319.87 333.669C319.87 331.898 319.918 330.172 320.007 328.51C316.67 328.723 313.626 329.11 311.048 329.627C310.897 330.94 310.817 332.29 310.817 333.669C310.817 335.048 310.897 336.399 311.048 337.711ZM320.795 338.875C322.468 338.967 324.21 339.015 326 339.015C327.79 339.015 329.532 338.967 331.205 338.875C331.297 337.201 331.346 335.458 331.346 333.669C331.346 331.88 331.297 330.137 331.205 328.464C329.532 328.372 327.79 328.323 326 328.323C324.21 328.323 322.468 328.372 320.795 328.464C320.703 330.137 320.654 331.88 320.654 333.669C320.654 335.459 320.703 337.201 320.795 338.875ZM331.993 338.828C335.33 338.615 338.375 338.229 340.952 337.711C341.103 336.399 341.183 335.048 341.183 333.669C341.183 332.29 341.103 330.94 340.952 329.627C338.375 329.109 335.33 328.723 331.993 328.51C332.083 330.172 332.13 331.898 332.13 333.669C332.13 335.44 332.083 337.167 331.993 338.828ZM341.76 337.541C342.047 337.478 342.328 337.413 342.601 337.346C346.687 336.353 349.215 335.049 349.215 333.669C349.215 332.289 346.688 330.984 342.601 329.991C342.327 329.924 342.046 329.859 341.76 329.796C341.896 331.056 341.966 332.35 341.966 333.669C341.966 334.987 341.895 336.28 341.76 337.541ZM327.759 310.608C328.81 311.771 329.727 313.962 330.437 316.884C330.525 317.246 330.61 317.622 330.693 318.007C333.397 318.363 335.938 319.021 338.232 319.925C337.763 318.953 337.247 318.038 336.686 317.19C334.333 313.623 331.22 311.222 327.759 310.609L327.759 310.608ZM324.241 356.73C323.19 355.566 322.273 353.375 321.563 350.454C321.475 350.091 321.39 349.716 321.307 349.331C318.603 348.975 316.062 348.317 313.768 347.413C314.237 348.385 314.754 349.299 315.314 350.148C317.667 353.715 320.78 356.116 324.241 356.729L324.241 356.73ZM321.307 318.007C321.389 317.621 321.474 317.246 321.563 316.884C322.273 313.962 323.19 311.771 324.241 310.608C320.779 311.221 317.667 313.623 315.313 317.189C314.754 318.038 314.236 318.952 313.768 319.924C316.061 319.02 318.602 318.362 321.306 318.006L321.307 318.007ZM329.678 317.067C328.685 312.981 327.38 310.452 326 310.452C324.62 310.452 323.316 312.98 322.322 317.067C322.256 317.341 322.191 317.622 322.128 317.908C323.388 317.772 324.682 317.702 326 317.702C327.318 317.702 328.611 317.773 329.872 317.908C329.81 317.621 329.744 317.34 329.678 317.067ZM322.128 349.43C322.191 349.717 322.256 349.997 322.323 350.27C323.316 354.357 324.62 356.885 326.001 356.885C327.38 356.885 328.685 354.358 329.679 350.27C329.745 349.997 329.81 349.716 329.873 349.43C328.613 349.566 327.319 349.636 326.001 349.636C324.683 349.636 323.39 349.565 322.128 349.43ZM303.426 328.227C304.646 325.983 306.598 323.975 309.093 322.33C310.195 321.602 311.404 320.946 312.703 320.371C313.278 319.073 313.934 317.864 314.661 316.762C316.306 314.267 318.314 312.315 320.558 311.095C316.332 312.11 312.557 314.28 309.584 317.253C306.61 320.226 304.44 324.002 303.426 328.228L303.426 328.227ZM339.298 320.371C340.596 320.946 341.806 321.602 342.908 322.329C345.402 323.975 347.355 325.983 348.574 328.226C347.56 324 345.39 320.225 342.416 317.252C339.443 314.278 335.668 312.108 331.442 311.093C333.686 312.313 335.694 314.265 337.339 316.76C338.067 317.862 338.723 319.072 339.297 320.37L339.298 320.371ZM312.703 346.967C311.404 346.392 310.195 345.735 309.093 345.009C306.599 343.363 304.646 341.355 303.426 339.112C304.441 343.337 306.611 347.113 309.584 350.086C312.558 353.059 316.333 355.23 320.558 356.244C318.315 355.025 316.307 353.073 314.662 350.578C313.934 349.476 313.278 348.266 312.703 346.968L312.703 346.967Z" stroke="#0A5B00" stroke-width="0.8" mask="url(#path-8-outside-1_18_2880)"/>
<path d="M325.999 357.666C319.372 357.666 313.372 354.979 309.029 350.637C304.686 346.294 302 340.294 302 333.666C302 332.641 302.064 331.631 302.189 330.64C302.634 330.4 303.072 330.153 303.508 329.9C303.252 330.553 303.061 331.224 302.94 331.908C304.103 330.857 306.294 329.939 309.216 329.23C309.578 329.142 309.954 329.056 310.338 328.974C310.553 327.344 310.877 325.773 311.299 324.28C311.682 323.943 312.059 323.599 312.432 323.25C311.859 324.988 311.424 326.852 311.152 328.808C313.734 328.304 316.756 327.928 320.054 327.72C320.261 324.423 320.637 321.401 321.141 318.818C319.141 319.097 317.237 319.545 315.464 320.138C315.793 319.77 316.116 319.397 316.434 319.018C317.98 318.571 319.612 318.229 321.307 318.006C321.39 317.62 321.475 317.246 321.564 316.883C322.273 313.961 323.19 311.771 324.241 310.607C323.362 310.762 322.506 311.034 321.679 311.41C321.953 310.919 322.221 310.426 322.478 309.925C323.628 309.755 324.804 309.667 326.001 309.667C332.628 309.667 338.628 312.354 342.971 316.696C347.314 321.04 350 327.039 350 333.667C350 340.294 347.313 346.295 342.971 350.638C338.628 354.981 332.628 357.667 326.001 357.667L325.999 357.666ZM349.06 335.425C347.896 336.476 345.706 337.393 342.784 338.103C342.422 338.191 342.046 338.277 341.661 338.359C341.305 341.063 340.647 343.604 339.743 345.898C340.715 345.429 341.63 344.912 342.478 344.352C346.045 341.998 348.446 338.886 349.059 335.424L349.06 335.425ZM340.848 338.525C338.266 339.029 335.244 339.405 331.946 339.612C331.739 342.909 331.363 345.932 330.859 348.514C333.701 348.117 336.351 347.38 338.705 346.37C339.715 344.016 340.452 341.366 340.849 338.524L340.848 338.525ZM331.158 339.658C329.496 339.747 327.77 339.795 325.999 339.795C324.228 339.795 322.502 339.747 320.84 339.658C321.054 342.995 321.44 346.04 321.957 348.618C323.27 348.769 324.62 348.849 325.999 348.849C327.378 348.849 328.729 348.769 330.041 348.618C330.559 346.04 330.946 342.995 331.158 339.658ZM320.052 339.612C316.755 339.405 313.733 339.029 311.15 338.525C311.547 341.367 312.284 344.017 313.295 346.37C315.648 347.381 318.298 348.118 321.14 348.515C320.636 345.932 320.26 342.91 320.053 339.613L320.052 339.612ZM310.337 338.358C309.951 338.276 309.577 338.19 309.214 338.102C306.293 337.392 304.102 336.475 302.939 335.424C303.552 338.886 305.953 341.998 309.52 344.352C310.369 344.912 311.283 345.429 312.255 345.898C311.35 343.604 310.692 341.063 310.336 338.359L310.337 338.358ZM320.84 327.672C322.502 327.582 324.228 327.535 325.999 327.535C327.77 327.535 329.496 327.582 331.158 327.672C330.945 324.334 330.559 321.29 330.041 318.711C328.729 318.56 327.378 318.481 325.999 318.481C324.62 318.481 323.27 318.56 321.957 318.711C321.439 321.289 321.053 324.334 320.84 327.672ZM331.946 327.717C335.244 327.925 338.266 328.301 340.848 328.805C340.451 325.963 339.714 323.313 338.704 320.959C336.35 319.949 333.7 319.211 330.858 318.815C331.362 321.397 331.738 324.419 331.946 327.717L331.946 327.717ZM341.661 328.971C342.047 329.053 342.422 329.139 342.784 329.227C345.706 329.937 347.896 330.854 349.06 331.905C348.446 328.444 346.045 325.331 342.479 322.977C341.63 322.418 340.716 321.9 339.744 321.432C340.648 323.726 341.306 326.267 341.662 328.971L341.661 328.971ZM342.601 337.343C346.687 336.349 349.215 335.045 349.215 333.665C349.215 332.285 346.688 330.98 342.601 329.987C342.327 329.92 342.046 329.855 341.76 329.792C341.896 331.053 341.966 332.347 341.966 333.665C341.966 334.983 341.895 336.276 341.76 337.537C342.047 337.474 342.328 337.409 342.601 337.343ZM340.952 329.623C338.374 329.105 335.329 328.718 331.993 328.506C332.082 330.167 332.13 331.894 332.13 333.665C332.13 335.436 332.082 337.162 331.993 338.824C335.33 338.611 338.374 338.224 340.952 337.707C341.103 336.394 341.183 335.044 341.183 333.665C341.183 332.286 341.103 330.935 340.952 329.623ZM331.205 328.459C329.532 328.367 327.79 328.319 326 328.319C324.21 328.319 322.468 328.367 320.795 328.459C320.703 330.133 320.654 331.876 320.654 333.665C320.654 335.454 320.703 337.197 320.795 338.87C322.468 338.962 324.21 339.011 326 339.011C327.79 339.011 329.532 338.962 331.205 338.87C331.297 337.197 331.346 335.454 331.346 333.665C331.346 331.875 331.297 330.133 331.205 328.459ZM320.007 328.506C316.67 328.719 313.625 329.105 311.048 329.623C310.897 330.935 310.817 332.286 310.817 333.665C310.817 335.044 310.897 336.394 311.048 337.707C313.625 338.225 316.67 338.611 320.007 338.824C319.917 337.162 319.87 335.436 319.87 333.665C319.87 331.894 319.917 330.167 320.007 328.506ZM310.24 329.793C309.953 329.856 309.672 329.921 309.399 329.988C305.313 330.981 302.785 332.285 302.785 333.665C302.785 335.045 305.312 336.35 309.399 337.343C309.673 337.41 309.954 337.475 310.24 337.538C310.104 336.278 310.034 334.984 310.034 333.665C310.034 332.347 310.105 331.054 310.24 329.793ZM324.241 356.726C323.19 355.563 322.273 353.372 321.563 350.45C321.475 350.088 321.39 349.712 321.307 349.327C318.603 348.971 316.062 348.313 313.768 347.409C314.237 348.381 314.753 349.296 315.314 350.144C317.667 353.711 320.78 356.112 324.241 356.725L324.241 356.726ZM327.759 310.604C328.81 311.768 329.727 313.958 330.437 316.88C330.525 317.243 330.61 317.618 330.693 318.003C333.397 318.359 335.938 319.017 338.232 319.921C337.763 318.949 337.246 318.035 336.686 317.186C334.333 313.619 331.22 311.218 327.759 310.605L327.759 310.604ZM330.693 349.327C330.611 349.713 330.526 350.088 330.437 350.45C329.727 353.372 328.81 355.563 327.759 356.726C331.221 356.113 334.333 353.711 336.687 350.145C337.246 349.296 337.764 348.382 338.232 347.41C335.939 348.314 333.398 348.972 330.694 349.328L330.693 349.327ZM322.322 350.267C323.315 354.353 324.62 356.882 326 356.882C327.38 356.882 328.684 354.354 329.678 350.267C329.744 349.993 329.809 349.712 329.872 349.426C328.612 349.562 327.318 349.632 326 349.632C324.682 349.632 323.389 349.561 322.128 349.426C322.19 349.713 322.256 349.994 322.322 350.267ZM329.872 317.904C329.809 317.617 329.744 317.337 329.677 317.064C328.684 312.977 327.38 310.449 325.999 310.449C324.62 310.449 323.315 312.976 322.321 317.064C322.255 317.337 322.19 317.618 322.127 317.904C323.387 317.768 324.681 317.698 325.999 317.698C327.317 317.698 328.61 317.769 329.872 317.904ZM348.574 339.107C347.354 341.351 345.402 343.359 342.907 345.004C341.805 345.732 340.596 346.388 339.297 346.963C338.722 348.261 338.066 349.47 337.339 350.572C335.694 353.067 333.686 355.019 331.442 356.239C335.668 355.224 339.443 353.054 342.416 350.081C345.39 347.108 347.56 343.332 348.574 339.106L348.574 339.107ZM312.702 346.963C311.404 346.388 310.194 345.732 309.092 345.005C306.598 343.359 304.645 341.351 303.426 339.108C304.44 343.334 306.61 347.109 309.584 350.082C312.557 353.056 316.332 355.226 320.558 356.241C318.314 355.021 316.306 353.069 314.661 350.574C313.933 349.472 313.277 348.262 312.703 346.964L312.702 346.963ZM339.297 320.367C340.596 320.942 341.805 321.599 342.907 322.325C345.401 323.971 347.354 325.979 348.574 328.222C347.559 323.997 345.389 320.221 342.416 317.248C339.442 314.275 335.667 312.104 331.441 311.09C333.685 312.309 335.693 314.261 337.338 316.756C338.066 317.858 338.722 319.068 339.297 320.366L339.297 320.367Z" stroke="#0A5B00" stroke-width="0.8" mask="url(#path-8-outside-1_18_2880)"/>
</svg>
